{"title":"Atlantis Season 2 HDTV X264 - DiGrX","uid":12793888,"size":4439918729,"categoryP":"video","categoryS":"tv_shows","magnet":"?xt=urn:btih:88cda50569440a4174f968f69b8bcb95232ff0e2&amp;dn=Atlantis+Season+2+HDTV+X264+-+DiGrX&amp;tr=udp%3A%2F%2Ftracker.leechers-paradise.org%3A6969&amp;tr=udp%3A%2F%2Fzer0day.ch%3A1337&amp;tr=udp%3A%2F%2Fopen.demonii.com%3A1337&amp;tr=udp%3A%2F%2Ftracker.coppersurfer.tk%3A6969&amp;tr=udp%3A%2F%2Fexodus.desync.com%3A6969","seeders":0,"leechers":3,"uploader":"dimigeor","files":13,"time":1447947478,"description":"Atlantis Season 2 HDTV XviD - DiGrX\r\n\r\nAll episodes in XviD from HDTV\r\n\r\nCodec ID, Format: XVID, MPEG-4\r\nAspect ratio, Dimension: 16:9, 720x404\r\nAudio: MP3, 2 Channels\r\n\r\n\r\n----------------------------------------------------------------------------------\r\n\r\n\r\nEpisode 1 example:\r\n\r\nGeneral\r\nComplete name                    : Atlantis [2013] 2x01 A New Dawn (1) HDTV.avi\r\nFormat                           : AVI\r\nFormat/Info                      : Audio Video Interleave\r\nFile size                        : 362 MiB\r\nDuration                         : 42mn 3s\r\nOverall bit rate                 : 1 205 Kbps\r\nWriting application              : MEncoder SVN-r33883(20110719-gcc4.5.2)\r\nWriting library                  : Mplayer\r\n\r\nVideo\r\nID                               : 0\r\nFormat                           : MPEG-4 Visual\r\nFormat profile                   : Advanced   \r\nFormat settings, BVOP            : 2\r\nFormat settings, QPel            : No\r\nFormat settings, GMC             : No warppoints\r\nFormat settings, Matrix          : Default (H.263)\r\nCodec ID                         : XVID\r\nCodec ID/Hint                    : XviD\r\nDuration                         : 42mn 3s\r\nBit rate                         : 1 064 Kbps\r\nWidth                            : 720 pixels\r\nHeight                           : 404 pixels\r\nDisplay aspect ratio             : 16:9\r\nFrame rate                       : 25.000 fps\r\nColor space                      : YUV\r\nChroma subsampling               : 4:2:0\r\nBit depth                        : 8 bits\r\nScan type                        : Progressive\r\nCompression mode                 : Lossy\r\nBits/(Pixel*Frame)               : 0.146\r\nStream size                      : 320 MiB (88%)\r\nWriting library                  : XviD 1.2.1 (UTC 2008-12-04)\r\n\r\nAudio\r\nID                               : 1\r\nFormat                           : MPEG Audio\r\nFormat version                   : Version 1\r\nFormat profile                   : Layer 3\r\nMode                             : Joint stereo\r\nMode extension                   : MS Stereo\r\nCodec ID                         : 55\r\nCodec ID/Hint                    : MP3\r\nDuration                         : 42mn 3s\r\nBit rate mode                    : Constant\r\nBit rate                         : 128 Kbps\r\nChannel(s)                       : 2 channels\r\nSampling rate                    : 48.0 Khz\r\nCompression mode                 : Lossy\r\nDelay relative to video          : 40ms\r\nStream size                      : 38.5 MiB (11%)\r\nAlignment                        : Aligned on interleaves\r\nInterleave, duration             : 24 ms (0.60 video frame)\r\nInterleave, preload duration     : 504 ms","torrent":{"xt":"urn:btih:88cda50569440a4174f968f69b8bcb95232ff0e2","amp;dn":"Atlantis+Season+2+HDTV+X264+-+DiGrX","amp;tr":["udp%3A%2F%2Ftracker.leechers-paradise.org%3A6969","udp%3A%2F%2Fzer0day.ch%3A1337","udp%3A%2F%2Fopen.demonii.com%3A1337","udp%3A%2F%2Ftracker.coppersurfer.tk%3A6969","udp%3A%2F%2Fexodus.desync.com%3A6969"],"infoHash":"88cda50569440a4174f968f69b8bcb95232ff0e2","infoHashBuffer":{"type":"Buffer","data":[136,205,165,5,105,68,10,65,116,249,104,246,155,139,203,149,35,47,240,226]},"announce":[],"urlList":[]}}